<?xml version="1.0" encoding="UTF-8" standalone="no"?>
<svg
   xmlns:dc="http://purl.org/dc/elements/1.1/"
   xmlns:cc="http://creativecommons.org/ns#"
   xmlns:rdf="http://www.w3.org/1999/02/22-rdf-syntax-ns#"
   xmlns:svg="http://www.w3.org/2000/svg"
   xmlns="http://www.w3.org/2000/svg"
   version="1.1"
   id="svg4279"
   viewBox="0 0 25 50.000001"
   height="50"
   width="25">
  <defs
     id="defs4281" />
  <metadata
     id="metadata4284">
    <rdf:RDF>
      <cc:Work
         rdf:about="">
        <dc:format>image/svg+xml</dc:format>
        <dc:type
           rdf:resource="http://purl.org/dc/dcmitype/StillImage" />
        <dc:title></dc:title>
      </cc:Work>
    </rdf:RDF>
  </metadata>
  <g
     transform="translate(0,-1002.3622)"
     id="layer1">
    <g
       id="g4264"
       transform="matrix(1.2490338,0,0,1.2818048,370.33227,70.093442)">
      <path
         style="fill:#00fa9a;fill-opacity:1;fill-rule:evenodd;stroke:none;stroke-width:0.60000002;stroke-linecap:butt;stroke-linejoin:miter;stroke-miterlimit:4;stroke-dasharray:none;stroke-opacity:1"
         d="m -287.26155,727.30946 c -2.25136,2.5755 -3.68265,5.7151 -4.96045,8.85022 -0.88116,1.83521 -2.94788,3.03089 -3.10828,5.20191 -0.1792,1.66735 -0.11644,3.36402 -0.63576,4.98172 -0.66286,2.68813 -0.96833,5.82146 0.71727,8.21114 0.64761,0.9657 1.46162,1.799 1.91758,2.88199 0.9878,1.56593 2.04044,3.09478 2.80463,4.78683 1.38508,1.26552 2.05283,3.77915 4.03483,4.09369 1.93638,-0.4895 2.33731,-2.74973 3.5123,-4.08332 1.33781,-1.55172 3.04629,-2.92974 3.56839,-5.00962 0.88592,-2.73649 1.1173,-5.70415 2.56916,-8.2373 0.778,-2.53444 -0.14266,-5.20012 0.36236,-7.7694 -0.0605,-2.18131 -1.4045,-4.19523 -3.07957,-5.49852 -1.69204,-0.95124 -3.69509,-1.50541 -4.95327,-3.07582 -1.45046,-1.07347 -3.30345,-2.54446 -2.9019,-4.58525 0.0615,-0.25103 0.14932,-0.48691 0.15271,-0.74827 z m -1.87155,9.27146 c 1.84047,2.62782 4.27576,4.82265 5.75269,7.7083 0.87954,1.60076 1.74853,3.48941 1.01476,5.32009 -0.43316,1.31109 -1.46097,2.49267 -2.83453,2.8345 -1.51984,1.50936 0.79041,3.66548 -0.3253,5.46656 -0.53378,1.52619 -0.79211,4.14456 -2.75383,4.36601 -1.60655,-0.27991 -1.90043,-2.22001 -2.80136,-3.33022 -0.99075,-1.81056 -1.96261,-3.63901 -3.06244,-5.38201 -0.49128,-1.61059 -0.2336,-3.34931 -0.14854,-5.00155 0.0317,-2.23461 2.10192,-3.57401 2.07575,-5.78521 0.48612,-2.17035 1.45746,-4.2776 2.86167,-6.00691 l 0.17891,-0.18564 0.0422,-0.004 0,3e-5 3e-5,-3.4e-4 z"
         id="path4136" />
      <path
         style="fill:none;fill-opacity:1;fill-rule:evenodd;stroke:#00fa9a;stroke-width:0.80000001;stroke-linecap:butt;stroke-linejoin:miter;stroke-miterlimit:4;stroke-dasharray:none;stroke-opacity:1"
         d="m -289.27998,735.93176 c 0.11989,1.95331 1.43816,2.80954 1.49706,4.78046 0.14467,2.1762 -1.83953,4.16562 -0.88208,6.34274 1.07994,2.57244 2.69146,4.86112 4.18736,7.19994 0.50488,2.04009 -0.0825,4.14831 0.1939,6.21638 0.55115,1.95124 -1.27657,3.78305 -3.16543,2.87979 -1.96133,-1.2074 -0.44794,-3.59609 -1.03457,-5.33525 -0.78971,-1.76951 -0.0777,-3.47808 0.57125,-5.13586 0.16182,-1.42521 1.00414,-4.7526 -1.24683,-4.66528 -1.76704,0.84682 -0.18471,3.27631 -1.54902,4.60032 -0.30757,1.6899 -2.16019,3.49232 -3.7784,2.02027 -1.49244,-1.66618 -0.83363,-3.9858 -1.02738,-5.9921 -0.14788,-2.05564 2.62237,-2.46204 3.80158,-1.17614 0.97224,0.62974 3.65314,0.0928 2.12152,-1.31277 -1.5919,-0.99822 -3.7111,-1.44765 -4.40016,-3.45719 -0.82454,-1.39361 -1.03401,-3.45936 0.43376,-4.51148 1.01963,-1.49313 2.57731,-1.02961 3.99764,-1.8853 0.14277,-0.15878 0.24779,-0.35578 0.2798,-0.56853 z"
         id="path4152" />
    </g>
  </g>
</svg>
